Normalized EMG Linear Envelopes
nRows=273
nColumns=4

endheader
time	 med_gas_r	  soleus_r	 tib_ant_r	
2.59476	  0.075725	  0.051542	  0.020560	
2.62802	  0.080681	  0.052210	  0.021655	
2.66129	  0.085159	  0.052773	  0.022463	
2.69456	  0.088598	  0.053184	  0.022834	
2.72782	  0.090915	  0.053529	  0.022806	
2.76109	  0.092554	  0.053964	  0.022548	
2.79435	  0.094218	  0.054633	  0.022274	
2.82762	  0.096406	  0.055608	  0.022163	
2.86089	  0.099048	  0.056854	  0.022327	
2.89415	  0.101499	  0.058202	  0.022782	
2.92742	  0.102843	  0.059366	  0.023430	
2.96069	  0.102308	  0.060023	  0.024073	
2.99395	  0.099611	  0.059944	  0.024490	
3.02722	  0.095103	  0.059070	  0.024535	
3.06048	  0.089665	  0.057486	  0.024188	
3.09375	  0.084364	  0.055323	  0.023511	
3.12702	  0.080045	  0.052694	  0.022586	
3.16028	  0.077101	  0.049730	  0.021492	
3.19355	  0.075516	  0.046686	  0.020338	
3.22681	  0.075035	  0.043957	  0.019307	
3.26008	  0.075301	  0.041972	  0.018624	
3.29335	  0.075909	  0.041009	  0.018467	
3.32661	  0.076476	  0.041079	  0.018873	
3.35988	  0.076769	  0.041940	  0.019716	
3.39315	  0.076798	  0.043222	  0.020756	
3.42641	  0.076792	  0.044584	  0.021722	
3.45968	  0.077049	  0.045854	  0.022376	
3.49294	  0.077786	  0.047082	  0.022562	
3.52621	  0.079074	  0.048462	  0.022233	
3.55948	  0.080893	  0.050151	  0.021462	
3.59274	  0.083181	  0.052112	  0.020412	
3.62601	  0.085802	  0.054114	  0.019273	
3.65927	  0.088486	  0.055881	  0.018201	
3.69254	  0.090853	  0.057240	  0.017283	
3.72581	  0.092549	  0.058122	  0.016554	
3.75907	  0.093381	  0.058463	  0.016035	
3.79234	  0.093340	  0.058167	  0.015742	
3.8256	  0.092575	  0.057194	  0.015679	
3.85887	  0.091374	  0.055715	  0.015806	
3.89214	  0.090134	  0.054127	  0.016050	
3.9254	  0.089209	  0.052913	  0.016335	
3.95867	  0.088666	  0.052416	  0.016615	
3.99194	  0.088179	  0.052676	  0.016867	
4.0252	  0.087231	  0.053435	  0.017076	
4.05847	  0.085493	  0.054281	  0.017218	
4.09173	  0.083099	  0.054876	  0.017280	
4.125	  0.080586	  0.055108	  0.017287	
4.15827	  0.078582	  0.055093	  0.017303	
4.19153	  0.077500	  0.055053	  0.017393	
4.2248	  0.077418	  0.055171	  0.017578	
4.25806	  0.078167	  0.055545	  0.017815	
4.29133	  0.079473	  0.056207	  0.018035	
4.3246	  0.081048	  0.057162	  0.018188	
4.35786	  0.082618	  0.058378	  0.018275	
4.39113	  0.083957	  0.059752	  0.018329	
4.4244	  0.084968	  0.061077	  0.018377	
4.45766	  0.085739	  0.062064	  0.018430	
4.49093	  0.086503	  0.062429	  0.018491	
4.52419	  0.087514	  0.061993	  0.018570	
4.55746	  0.088911	  0.060751	  0.018678	
4.59073	  0.090678	  0.058836	  0.018806	
4.62399	  0.092683	  0.056450	  0.018914	
4.65726	  0.094717	  0.053810	  0.018954	
4.69052	  0.096499	  0.051158	  0.018891	
4.72379	  0.097680	  0.048782	  0.018727	
4.75706	  0.097936	  0.046988	  0.018491	
4.79032	  0.097131	  0.046007	  0.018234	
4.82359	  0.095449	  0.045907	  0.018018	
4.85685	  0.093370	  0.046580	  0.017909	
4.89012	  0.091494	  0.047806	  0.017949	
4.92339	  0.090306	  0.049323	  0.018151	
4.95665	  0.090010	  0.050866	  0.018506	
4.98992	  0.090522	  0.052161	  0.018996	
5.02319	  0.091596	  0.052959	  0.019601	
5.05645	  0.092989	  0.053094	  0.020290	
5.08972	  0.094547	  0.052556	  0.021011	
5.12298	  0.096156	  0.051499	  0.021680	
5.15625	  0.097596	  0.050189	  0.022180	
5.18952	  0.098439	  0.048928	  0.022371	
5.22278	  0.098084	  0.047987	  0.022121	
5.25605	  0.096015	  0.047569	  0.021337	
5.28931	  0.092122	  0.047780	  0.019990	
5.32258	  0.086845	  0.048581	  0.018099	
5.35585	  0.081002	  0.049744	  0.015707	
5.38911	  0.075446	  0.050875	  0.012891	
5.42238	  0.070868	  0.051558	  0.009848	
5.45565	  0.067850	  0.051604	  0.007056	
5.48891	  0.067019	  0.051277	  0.005453	
5.52218	  0.069097	  0.051344	  0.006525	
5.55544	  0.074847	  0.052968	  0.012268	
5.58871	  0.085051	  0.057570	  0.025080	
5.62198	  0.100576	  0.066733	  0.047569	
5.65524	  0.122295	  0.082018	  0.082130	
5.68851	  0.150640	  0.104466	  0.130115	
5.72177	  0.184861	  0.133794	  0.190693	
5.75504	  0.222565	  0.167774	  0.259986	
5.78831	  0.260076	  0.202471	  0.331209	
5.82157	  0.293595	  0.233520	  0.396133	
5.85484	  0.320426	  0.257702	  0.447373	
5.8881	  0.339537	  0.273790	  0.480483	
5.92137	  0.351390	  0.282340	  0.495000	
5.95464	  0.357524	  0.285052	  0.494161	
5.9879	  0.360279	  0.284378	  0.483568	
6.02117	  0.362583	  0.283289	  0.469379	
6.05444	  0.367530	  0.284740	  0.456780	
6.0877	  0.377594	  0.290798	  0.449276	
6.12097	  0.393705	  0.301982	  0.448771	
6.15423	  0.414712	  0.317313	  0.455931	
6.1875	  0.437798	  0.335050	  0.470408	
6.22077	  0.459907	  0.353579	  0.490945	
6.25403	  0.479303	  0.371879	  0.515607	
6.2873	  0.496047	  0.389411	  0.542208	
6.32056	  0.511067	  0.405704	  0.568732	
6.35383	  0.524790	  0.420110	  0.593612	
6.3871	  0.536655	  0.431902	  0.615752	
6.42036	  0.545771	  0.440585	  0.634261	
6.45363	  0.551811	  0.446147	  0.648060	
6.4869	  0.555232	  0.449116	  0.655848	
6.52016	  0.556892	  0.450515	  0.656726	
6.55343	  0.557797	  0.451882	  0.650954	
6.58669	  0.559283	  0.455303	  0.639934	
6.61996	  0.563055	  0.463111	  0.625342	
6.65323	  0.570574	  0.477005	  0.608446	
6.68649	  0.582120	  0.496899	  0.590484	
6.71976	  0.596419	  0.520368	  0.573602	
6.75302	  0.611234	  0.543332	  0.561122	
6.78629	  0.624451	  0.561700	  0.556524	
6.81956	  0.634844	  0.572888	  0.561789	
6.85282	  0.642177	  0.576338	  0.576205	
6.88609	  0.646935	  0.573132	  0.596423	
6.91935	  0.650157	  0.565404	  0.617763	
6.95262	  0.653258	  0.555791	  0.635996	
6.98589	  0.657325	  0.546564	  0.648499	
7.01915	  0.661956	  0.538596	  0.654213	
7.05242	  0.664792	  0.531225	  0.652868	
7.08569	  0.662880	  0.523622	  0.644509	
7.11895	  0.655224	  0.516633	  0.629870	
7.15222	  0.644343	  0.513154	  0.611123	
7.18548	  0.635204	  0.516409	  0.592122	
7.21875	  0.632294	  0.527539	  0.577756	
7.25202	  0.637149	  0.544486	  0.572714	
7.28528	  0.647991	  0.562813	  0.580280	
7.31855	  0.661098	  0.577447	  0.601515	
7.35181	  0.672412	  0.584076	  0.634900	
7.38508	  0.678524	  0.579881	  0.676448	
7.41835	  0.677304	  0.564046	  0.720325	
7.45161	  0.668663	  0.538237	  0.759915	
7.48488	  0.655137	  0.506595	  0.789031	
7.51815	  0.641509	  0.474793	  0.803035	
7.55141	  0.633269	  0.448440	  0.799904	
7.58468	  0.634638	  0.431749	  0.781153	
7.61794	  0.647158	  0.427058	  0.751956	
7.65121	  0.669389	  0.435044	  0.719693	
7.68448	  0.697675	  0.455037	  0.691168	
7.71774	  0.727568	  0.485201	  0.670127	
7.75101	  0.755254	  0.522689	  0.656751	
7.78427	  0.778286	  0.563893	  0.649194	
7.81754	  0.795340	  0.604720	  0.645604	
7.85081	  0.805486	  0.640878	  0.644958	
7.88407	  0.807796	  0.668340	  0.646590	
7.91734	  0.801709	  0.684106	  0.649715	
7.9506	  0.787703	  0.687002	  0.653807	
7.98387	  0.767582	  0.678065	  0.659172	
8.01714	  0.743982	  0.660144	  0.666398	
8.0504	  0.719443	  0.636849	  0.674744	
8.08367	  0.695826	  0.611503	  0.681217	
8.11694	  0.674618	  0.586876	  0.681739	
8.1502	  0.657614	  0.565683	  0.673641	
8.18347	  0.646822	  0.550799	  0.657392	
8.21673	  0.643196	  0.544351	  0.636265	
8.25	  0.645328	  0.546280	  0.614634	
8.28327	  0.649574	  0.553926	  0.596295	
8.31653	  0.651832	  0.563501	  0.583643	
8.3498	  0.649637	  0.572398	  0.577604	
8.38306	  0.643053	  0.580268	  0.578087	
8.41633	  0.633823	  0.587802	  0.584653	
8.4496	  0.623690	  0.594406	  0.596957	
8.48286	  0.613325	  0.597137	  0.614495	
8.51613	  0.602626	  0.592135	  0.635866	
8.5494	  0.591866	  0.577415	  0.658488	
8.58266	  0.582561	  0.554806	  0.679437	
8.61593	  0.577426	  0.529712	  0.696863	
8.64919	  0.579586	  0.509037	  0.710576	
8.68246	  0.591454	  0.498566	  0.721120	
8.71573	  0.613576	  0.501016	  0.728294	
8.74899	  0.643756	  0.515361	  0.730758	
8.78226	  0.677025	  0.537410	  0.727145	
8.81552	  0.706930	  0.561309	  0.717469	
8.84879	  0.727873	  0.581555	  0.703513	
8.88206	  0.737436	  0.594921	  0.688075	
8.91532	  0.737273	  0.601455	  0.673901	
8.94859	  0.731792	  0.603814	  0.662898	
8.98185	  0.725242	  0.605159	  0.655774	
9.01512	  0.719186	  0.607011	  0.652193	
9.04839	  0.712199	  0.608631	  0.651462	
9.08165	  0.701854	  0.608117	  0.653299	
9.11492	  0.687123	  0.603940	  0.657870	
9.14819	  0.669219	  0.595597	  0.664785	
9.18145	  0.650574	  0.583280	  0.671873	
9.21472	  0.633212	  0.567412	  0.675151	
9.24798	  0.617991	  0.548707	  0.670476	
9.28125	  0.605096	  0.528590	  0.655842	
9.31452	  0.595038	  0.509422	  0.632627	
9.34778	  0.589056	  0.494133	  0.605001	
9.38105	  0.588465	  0.485424	  0.578090	
9.41431	  0.593455	  0.484897	  0.556104	
9.44758	  0.602376	  0.492501	  0.541186	
9.48085	  0.612089	  0.506383	  0.533229	
9.51411	  0.619172	  0.523166	  0.530496	
9.54738	  0.621139	  0.538581	  0.530743	
9.58065	  0.616999	  0.548280	  0.532223	
9.61391	  0.607011	  0.548638	  0.534044	
9.64718	  0.592072	  0.537428	  0.535819	
9.68044	  0.573365	  0.514379	  0.537189	
9.71371	  0.552469	  0.481508	  0.537822	
9.74698	  0.531460	  0.442888	  0.537888	
9.78024	  0.512442	  0.403661	  0.538337	
9.81351	  0.496595	  0.368567	  0.540293	
9.84677	  0.483514	  0.340651	  0.543732	
9.88004	  0.471499	  0.320834	  0.546587	
9.91331	  0.458609	  0.308534	  0.545306	
9.94657	  0.443678	  0.302784	  0.536620	
9.97984	  0.426593	  0.302808	  0.519072	
10.0131	  0.407900	  0.307443	  0.493122	
10.0464	  0.388361	  0.314046	  0.460142	
10.0796	  0.368862	  0.318302	  0.421527	
10.1129	  0.350481	  0.315682	  0.378593	
10.1462	  0.334200	  0.303568	  0.332857	
10.1794	  0.320213	  0.282290	  0.285994	
10.2127	  0.307410	  0.254363	  0.239525	
10.246	  0.293649	  0.222933	  0.194779	
10.2792	  0.276789	  0.190826	  0.153334	
10.3125	  0.255780	  0.160506	  0.117382	
10.3458	  0.231156	  0.134118	  0.089436	
10.379	  0.204790	  0.113118	  0.071533	
10.4123	  0.179232	  0.097823	  0.064578	
10.4456	  0.156949	  0.087514	  0.068160	
10.4788	  0.139737	  0.081040	  0.080543	
10.5121	  0.128480	  0.077416	  0.098494	
10.5454	  0.123315	  0.075993	  0.117276	
10.5786	  0.123951	  0.076289	  0.131512	
10.6119	  0.129867	  0.077825	  0.136999	
10.6452	  0.140300	  0.080075	  0.132443	
10.6784	  0.154213	  0.082539	  0.119834	
10.7117	  0.170371	  0.084828	  0.103152	
10.745	  0.187424	  0.086765	  0.086403	
10.7782	  0.203801	  0.088431	  0.072233	
10.8115	  0.217576	  0.090070	  0.061637	
10.8448	  0.226680	  0.091882	  0.054381	
10.878	  0.229641	  0.093852	  0.049602	
10.9113	  0.226384	  0.095742	  0.046297	
10.9446	  0.218368	  0.097152	  0.043685	
10.9778	  0.207814	  0.097558	  0.041407	
11.0111	  0.196648	  0.096411	  0.039494	
11.0444	  0.186004	  0.093413	  0.038113	
11.0776	  0.176597	  0.088874	  0.037302	
11.1109	  0.169362	  0.083761	  0.036876	
11.1442	  0.165564	  0.079279	  0.036532	
11.1774	  0.166182	  0.076278	  0.036022	
11.2107	  0.171151	  0.074978	  0.035277	
11.244	  0.179276	  0.075145	  0.034421	
11.2772	  0.188901	  0.076420	  0.033694	
11.3105	  0.198741	  0.078475	  0.033341	
11.3437	  0.208109	  0.080988	  0.033515	
11.377	  0.216436	  0.083666	  0.034252	
11.4103	  0.222659	  0.086354	  0.035480	
11.4435	  0.225137	  0.089050	  0.037018	
11.4768	  0.222269	  0.091715	  0.038569	
11.5101	  0.213368	  0.094079	  0.039753	
11.5433	  0.199188	  0.095693	  0.040234	
11.5766	  0.181640	  0.096219	  0.039852	
11.6099	  0.162888	  0.095661	  0.038686	
11.6431	  0.144467	  0.094348	  0.037004	
